<svg width="27" height="25" viewBox="0 0 27 25" fill="none" xmlns="http://www.w3.org/2000/svg">
<g clip-path="url(#clip0_3_693)">
<path d="M23.6645 13.5547C23.0903 19.7329 17.6235 24.2761 11.4453 23.702C5.26707 23.1278 0.723891 17.661 1.29803 11.4828C1.79728 6.09088 6.06588 1.83476 11.4453 1.33551C8.57461 5.21719 9.39838 10.684 13.2801 13.5547C16.3629 15.8263 20.5816 15.8263 23.6645 13.5547Z" stroke="#E6E7F2" stroke-width="2" stroke-linecap="round" stroke-linejoin="round"/>
<path d="M19.5706 8.63701C19.4458 8.53716 19.296 8.49972 19.1463 8.5122H16.8372L19.009 6.09083L19.2211 5.86617L19.346 5.70391C19.3834 5.65399 19.4084 5.59158 19.4333 5.54165C19.4583 5.47925 19.4708 5.41684 19.4708 5.34195C19.4833 5.1797 19.4084 5.02992 19.2711 4.94255C19.0963 4.85518 18.8966 4.81774 18.6969 4.83022H15.976C15.8387 4.81774 15.6889 4.86767 15.5766 4.95503C15.4768 5.02992 15.4268 5.15473 15.4268 5.27955C15.4268 5.46677 15.4892 5.5791 15.6141 5.62902C15.7888 5.67895 15.976 5.70391 16.1632 5.69143H17.9231C17.8482 5.79128 17.7608 5.91609 17.636 6.05339L17.1867 6.56512L16.5876 7.23911L15.9011 8.02543C15.6515 8.30002 15.4892 8.48724 15.4144 8.58709C15.2521 8.79927 15.2771 9.08634 15.4643 9.27356C15.6141 9.38589 15.7888 9.43581 15.9635 9.42333H19.1587C19.3085 9.43581 19.4583 9.38589 19.5831 9.29852C19.6705 9.21115 19.7204 9.09882 19.7204 8.97401C19.7204 8.83671 19.6705 8.72438 19.5706 8.63701Z" fill="#E6E7F2"/>
<path d="M26.7848 4.76785C26.635 4.64304 26.4478 4.59312 26.2606 4.6056H23.3524L26.0734 1.57265L26.323 1.28558L26.4852 1.08588C26.5352 1.02347 26.5726 0.948583 26.5976 0.873695C26.635 0.798808 26.6475 0.711439 26.6475 0.62407C26.6725 0.424369 26.5726 0.224669 26.3979 0.124819C26.1607 0.0374497 25.9111 -0.0124754 25.6615 5.8444e-06H22.2541C22.0794 -0.0124754 21.8921 0.0374497 21.7548 0.149781C21.6425 0.249631 21.5676 0.399407 21.5801 0.561663C21.5801 0.798808 21.655 0.936102 21.8172 0.986027C22.0419 1.04843 22.2666 1.0734 22.5037 1.0734H24.7004C24.6131 1.19821 24.4882 1.34798 24.3385 1.52272L23.7643 2.17175L23.0155 2.99551L22.1293 3.98153C21.8172 4.33101 21.6175 4.55567 21.5302 4.668C21.318 4.93011 21.343 5.31703 21.5926 5.55417C21.7798 5.69147 22.0045 5.75387 22.2291 5.74139H26.2356C26.4353 5.76636 26.6225 5.71643 26.7848 5.6041C26.8971 5.50425 26.972 5.35447 26.9595 5.19222C26.972 5.02996 26.9096 4.88019 26.7848 4.76785Z" fill="#E6E7F2"/>
</g>
<defs>
<clipPath id="clip0_3_693">
<rect width="26.972" height="25" fill="white"/>
</clipPath>
</defs>
</svg>
