<svg width="243" height="107" viewBox="0 0 243 107" fill="none" xmlns="http://www.w3.org/2000/svg">
<path d="M35.1217 36.4321C89.2808 65.9936 157.378 52.6628 196.416 4.85399C200.736 -0.436063 208.376 -1.55676 214.042 2.2568L237.162 17.8096C243.572 22.1245 244.92 30.9758 240.125 37.0414C227.9 52.5031 213.39 65.7627 196.849 76.5636C177.032 89.5039 155.165 98.3805 131.851 102.946C108.536 107.511 84.9385 107.535 61.7134 103.021C42.3242 99.2505 23.894 92.4467 6.74828 82.7329C0.025378 78.923 -2.06003 70.2142 2.25343 63.799L17.8127 40.6723C21.6278 35.0043 29.1308 33.1596 35.1217 36.4321Z" fill="#FAF8F5"/>
</svg>
