<svg width="273" height="482" viewBox="0 0 273 482" fill="none" xmlns="http://www.w3.org/2000/svg">
<path d="M83.9492 376.989C85.6802 383.223 90.473 407.066 94.2753 436.393C97.3971 460.568 78.6261 482 54.262 482L40.3539 482C18.0009 482 -0.0996657 463.829 0.000400502 441.476C0.500701 327.73 3.76262 154.72 14.1987 140.061C22.9238 127.814 32.5594 102.769 39.1032 83.3282C46.8877 60.2247 60.4956 39.4526 78.8863 23.4533C79.4367 22.9731 79.987 22.5028 80.5273 22.0525C92.1741 12.2469 106.302 5.8231 121.301 3.22159C241.431 -17.5905 272.049 67.3989 272.149 115.657C272.149 116.517 272.179 117.378 272.229 118.238C273.64 145.875 254.228 205.719 164.546 234.336C73.4331 263.393 72.8428 341.548 83.9492 376.989Z" fill="url(#paint0_linear_1_3981)"/>
<defs>
<linearGradient id="paint0_linear_1_3981" x1="234.007" y1="17.0402" x2="-496.73" y2="1074.58" gradientUnits="userSpaceOnUse">
<stop stop-color="#F2EDE4"/>
<stop offset="1" stop-color="#FAF7F2" stop-opacity="0"/>
</linearGradient>
</defs>
</svg>
