<svg width="273" height="482" viewBox="0 0 273 482" fill="none" xmlns="http://www.w3.org/2000/svg">
<path d="M188.349 105.011C186.618 98.7774 181.826 74.9336 178.023 45.6065C174.902 21.4325 193.672 0 218.037 0H231.945C254.298 0 272.398 18.1706 272.298 40.5236C271.798 154.27 268.536 327.28 258.1 341.939C249.375 354.186 239.739 379.231 233.195 398.672C225.411 421.775 211.803 442.547 193.412 458.547C192.862 459.027 192.312 459.497 191.771 459.947C180.125 469.753 165.996 476.177 150.998 478.778C30.8678 499.59 0.249983 414.601 0.149925 366.343C0.149925 365.483 0.119907 364.622 0.0698783 363.762C-1.34094 336.125 18.0704 276.281 107.752 247.664C198.865 218.607 199.456 140.452 188.349 105.011Z" fill="url(#paint0_linear_1_3982)"/>
<defs>
<linearGradient id="paint0_linear_1_3982" x1="26.6745" y1="429.813" x2="424.75" y2="-95.1257" gradientUnits="userSpaceOnUse">
<stop stop-color="#F2EDE4"/>
<stop offset="1" stop-color="#F2EDE4" stop-opacity="0"/>
</linearGradient>
</defs>
</svg>
