<svg width="195" height="172" viewBox="0 0 195 172" fill="none" xmlns="http://www.w3.org/2000/svg">
<path d="M140.65 161.037C130.037 100.156 77.1177 55.1048 15.3034 54.3306C8.46335 54.2445 2.8197 48.9559 2.27425 42.1369L0.0430112 14.3185C-0.573891 6.6034 5.52209 0.0266815 13.2659 0.000949634C33.0079 -0.0617718 52.449 3.0392 71.2302 9.26557C93.7312 16.725 114.326 28.3246 132.445 43.7482C150.564 59.1718 165.3 77.6499 176.248 98.6664C185.387 116.213 191.55 134.9 194.631 154.395C195.838 162.04 190.314 169.106 182.596 169.726L154.768 171.957C147.947 172.503 141.822 167.773 140.65 161.037Z" fill="#1F265E"/>
</svg>
